<?xml version="1.0" encoding="UTF-8" standalone="no"?>
<svg
   xmlns:dc="http://purl.org/dc/elements/1.1/"
   xmlns:cc="http://creativecommons.org/ns#"
   xmlns:rdf="http://www.w3.org/1999/02/22-rdf-syntax-ns#"
   xmlns:svg="http://www.w3.org/2000/svg"
   xmlns="http://www.w3.org/2000/svg"
   xmlns:sodipodi="http://sodipodi.sourceforge.net/DTD/sodipodi-0.dtd"
   xmlns:inkscape="http://www.inkscape.org/namespaces/inkscape"
   sodipodi:docname="calentadorT.svg"
   id="svg846"
   version="1.1"
   viewBox="0 0 69.048996 82.545975"
   height="20px"
   width="20px"
   inkscape:version="1.0 (4035a4fb49, 2020-05-01)">
  <defs
     id="defs840" />
  <sodipodi:namedview
     fit-margin-left="0.1"
     fit-margin-right="0.1"
     fit-margin-bottom="0.1"
     fit-margin-top="0.1"
     id="base"
     pagecolor="#ffffff"
     bordercolor="#666666"
     borderopacity="1.0"
     inkscape:pageopacity="0.0"
     inkscape:pageshadow="2"
     inkscape:zoom="0.98994949"
     inkscape:cx="286.1056"
     inkscape:cy="278.5008"
     inkscape:document-units="mm"
     inkscape:current-layer="layer1"
     inkscape:document-rotation="0"
     showgrid="false"
     inkscape:window-width="1920"
     inkscape:window-height="1001"
     inkscape:window-x="-9"
     inkscape:window-y="-9"
     inkscape:window-maximized="1" />
  <metadata
     id="metadata843">
    <rdf:RDF>
      <cc:Work
         rdf:about="">
        <dc:format>image/svg+xml</dc:format>
        <dc:type
           rdf:resource="http://purl.org/dc/dcmitype/StillImage" />
        <dc:title></dc:title>
      </cc:Work>
    </rdf:RDF>
  </metadata>
  <g
     transform="translate(-26.814029,-120.15781)"
     inkscape:label="Capa 1"
     inkscape:groupmode="layer"
     id="layer1">
    <path
       style="fill:#000000;stroke-width:0.264583"
       id="path1506"
       d="" />
    <path
       style="fill:#000000;stroke-width:0.264583"
       id="path1504"
       d="" />
    <path
       style="fill:#000000;stroke-width:0.264583"
       id="path1502"
       d="" />
    <path
       sodipodi:nodetypes="csccsssscssssssscssccccsssccccccccccccccsscccsssssccsssscsssscsssssccssscssscssscssssscccssscsssssccssscssccssssssssssssssssssssssssssssssssssssss"
       id="path1508-5"
       d="m 27.518714,201.99521 c -0.620949,-0.62095 -0.634051,-52.08028 -0.01371,-53.83852 1.496172,-4.2406 -0.45749,-3.97421 28.54264,-3.8919 l 24.716737,0.0702 1.01549,0.82197 c 3.315941,2.68399 3.218942,9.03866 -0.168511,11.03968 -0.438901,0.25927 -0.798004,0.64197 -0.798004,0.85045 0,0.39735 6.584333,23.76258 9.819841,34.84676 l 0.521316,1.78594 h 1.920262 c 2.5938,0 2.55525,-0.0665 2.55525,4.40923 0,3.46068 -0.0425,3.79698 -0.51177,4.04812 -0.9452,0.50586 -56.506733,0.3676 -57.016209,-0.14188 -0.335314,-0.33531 -0.415774,-1.0811 -0.415774,-3.85385 0,-4.31107 0.07174,-4.46162 2.125976,-4.46162 1.99354,0 2.251219,1.59069 -2.400169,-14.81667 l -1.012604,-3.57188 -0.01806,13.03073 c -0.01755,12.66541 -0.03289,13.04557 -0.547225,13.5599 -0.716404,0.7164 -7.618348,0.81052 -8.315477,0.11339 z m 5.934227,-19.94488 V 164.6001 l -1.043262,-3.64282 c -0.94069,-3.28466 -1.456017,-4.31921 -2.151464,-4.31921 -0.356805,0 -0.376437,1.40474 -0.307827,22.02656 l 0.06932,20.83594 h 1.716616 1.716615 z m 59.531253,15.86274 v -1.5875 H 66.790442 40.596691 v 1.5875 1.5875 h 26.193751 26.193752 z m -41.275003,-4.40462 c 0,-0.0942 -0.77846,-2.92194 -1.729909,-6.28385 -0.95145,-3.36192 -3.245364,-11.47039 -5.097585,-18.01882 l -3.367676,-11.90625 -3.610142,-0.0735 -3.610142,-0.0735 0.483148,1.66096 c 0.265731,0.91352 1.159777,4.10174 1.98677,7.08491 0.826993,2.98318 2.334425,8.40053 3.34985,12.03855 1.015425,3.63802 2.377683,8.51958 3.027241,10.84791 0.649558,2.32834 1.232105,4.38217 1.294551,4.56407 0.120059,0.34973 7.273894,0.50654 7.273894,0.15944 z m 9.260417,-0.0352 c 0,-0.11355 -1.077597,-4.01285 -2.394661,-8.66511 -1.317064,-4.65226 -3.231994,-11.43522 -4.255402,-15.07324 -1.023407,-3.63802 -2.23958,-7.92427 -2.702606,-9.525 l -0.841865,-2.91041 -3.104816,-0.0745 c -2.037456,-0.0489 -3.104817,0.0209 -3.104817,0.203 0,0.15264 1.004075,3.81759 2.231279,8.14433 5.58066,19.67569 7.285686,25.72452 7.574868,26.87296 l 0.310841,1.23447 h 3.143588 c 1.728976,0 3.143591,-0.0929 3.143591,-0.20645 z m 9.260417,-0.0163 c 0,-0.20007 -6.179158,-22.18154 -9.048509,-32.18876 l -1.137949,-3.96875 -3.108854,-0.0745 c -1.70987,-0.041 -3.108855,0.0153 -3.108855,0.12516 0,0.21364 2.143723,7.88992 5.675321,20.3223 1.198782,4.22011 2.704198,9.54804 3.34537,11.83984 l 1.165768,4.16693 3.108854,2.6e-4 c 1.70987,1.5e-4 3.108854,-0.0999 3.108854,-0.22243 z m 9.260417,-0.0619 c 0,-0.15653 -0.528228,-2.15083 -1.17384,-4.43177 -0.64561,-2.28094 -2.538807,-8.9692 -4.207103,-14.86279 -1.668295,-5.8936 -3.422901,-12.11461 -3.899124,-13.82448 l -0.86586,-3.10886 h -3.129119 c -1.721016,0 -3.129121,0.0931 -3.129121,0.2068 0,0.11374 0.406239,1.63179 0.902753,3.37344 0.496515,1.74165 2.772421,9.77461 5.057569,17.85102 2.285148,8.0764 4.207655,14.77367 4.272237,14.88281 0.192003,0.32448 6.171608,0.24099 6.171608,-0.0862 z m 8.466666,-0.0841 c 0,-0.2028 -1.299715,-4.93553 -2.888257,-10.51719 -1.588543,-5.58165 -3.560162,-12.52971 -4.381376,-15.44013 -0.821214,-2.91041 -1.805879,-6.39299 -2.188146,-7.73906 l -0.695032,-2.4474 h -2.728801 c -1.500844,0 -2.728804,0.0704 -2.728804,0.15639 0,0.086 1.320988,4.81874 2.935525,10.51718 1.614541,5.69845 3.874387,13.69189 5.021885,17.76321 1.147495,4.07133 2.14449,7.55391 2.215544,7.73907 0.195067,0.50834 5.437462,0.47742 5.437462,-0.0321 z M 79.622733,154.1276 c 2.091823,-0.53784 2.31615,-5.54217 0.303454,-6.76944 -0.802384,-0.48926 -1.595181,-0.50773 -21.831694,-0.50868 l -20.999074,-0.001 0.179464,0.72761 c 0.577206,2.34017 0.582922,3.62449 0.02679,6.01927 l -0.18433,0.79375 20.988114,-0.0627 c 11.543461,-0.0345 21.226237,-0.12396 21.517279,-0.19879 z m -45.659717,-0.56807 c 2.208109,-2.80715 0.340138,-7.71158 -2.397872,-6.2957 -1.844935,0.95405 -2.140905,4.67739 -0.508555,6.39768 0.81121,0.85491 2.191846,0.80647 2.906427,-0.10198 z m 12.605699,-11.62474 c -0.605904,-0.6059 -0.509566,-1.52242 0.245684,-2.33734 0.873051,-0.94204 0.844698,-1.10797 -0.382476,-2.23839 -2.221038,-2.04591 -2.211214,-4.12978 0.03105,-6.58666 1.07465,-1.17751 1.092657,-1.61 0.10129,-2.43276 -0.944192,-0.78361 -0.335214,-2.40021 0.898366,-2.38483 2.878291,0.0359 3.660021,5.02761 1.075556,6.86791 -1.036101,0.73777 -1.091891,1.86592 -0.123654,2.50034 2.17206,1.42318 2.289265,4.84852 0.221557,6.47498 -0.837557,0.65882 -1.501391,0.70273 -2.067373,0.13675 z m 16.310516,0.085 c -0.588979,-0.71657 -0.383985,-2.13322 0.349409,-2.41465 0.700725,-0.2689 0.461539,-1.59777 -0.40258,-2.23664 -2.028367,-1.49964 -2.1703,-4.32544 -0.312341,-6.21856 1.216623,-1.23965 1.371447,-1.96706 0.572556,-2.69005 -0.588002,-0.53213 -0.701196,-1.70651 -0.211667,-2.19604 1.20259,-1.20259 3.65125,0.95669 3.65125,3.21976 0,1.34905 -0.387275,2.16545 -1.583412,3.3379 -1.319421,1.2933 -1.318596,1.31432 0.106783,2.71953 1.281092,1.26297 1.664375,2.41846 1.352916,4.07868 -0.344176,1.83461 -2.679812,3.42582 -3.522914,2.40007 z m -8.108432,-5.6413 c -0.57495,-0.57495 -0.520245,-1.61662 0.113393,-2.15916 0.753393,-0.64507 0.683183,-1.76121 -0.144923,-2.3038 -2.28544,-1.49748 -2.315854,-4.24323 -0.07421,-6.69943 1.07465,-1.17751 1.092657,-1.61 0.10129,-2.43276 -0.954773,-0.79239 -0.335449,-2.39324 0.925878,-2.39324 2.893427,0 3.558003,4.53409 1.013515,6.91475 -1.264044,1.18266 -1.270402,1.3834 -0.07709,2.43439 1.227664,1.08125 1.695127,2.00531 1.695127,3.35086 0,2.44096 -2.285296,4.55607 -3.552973,3.28839 z"
       style="opacity:1;fill:#b1b1b1;fill-opacity:1;stroke:#b2b2b2;stroke-width:0.264583;stroke-opacity:1" />
  </g>
</svg>
