<?xml version="1.0" encoding="UTF-8"?>
<svg width="69.714mm" height="103.22mm" version="1.1" viewBox="0 0 69.714 103.22" xmlns="http://www.w3.org/2000/svg" xmlns:cc="http://creativecommons.org/ns#" xmlns:dc="http://purl.org/dc/elements/1.1/" xmlns:rdf="http://www.w3.org/1999/02/22-rdf-syntax-ns#">
 <metadata>
  <rdf:RDF>
   <cc:Work rdf:about="">
    <dc:format>image/svg+xml</dc:format>
    <dc:type rdf:resource="http://purl.org/dc/dcmitype/StillImage"/>
    <dc:title/>
   </cc:Work>
  </rdf:RDF>
 </metadata>
 <g transform="translate(-56.666 -159.1)" fill="none" stroke="#b2b2b2">
  <g stroke-width="2.5184">
   <path transform="matrix(1.1912 0 0 1.1912 -12.269 .14031)" d="m98.376 141.39v6.1472s15.505 0.0838 15.881 8.2854l0.13364 56.928c-2.1382 5.2563-16.302 5.3454-27.261 5.3454s-25.123-0.0891-27.261-5.3454l0.13364-56.928c0.37635-8.2015 15.881-8.2854 15.881-8.2854v-6.1472" stroke-linejoin="round"/>
   <g>
    <path transform="matrix(1.1912 0 0 1.1912 -25.482 -39.976)" d="m71.896 230.65c6.1062 3.098 13.134 4.074 26.462 4.3076m26.273-4.3076c-6.1062 3.098-13.134 4.074-26.462 4.3076"/>
    <path transform="matrix(1.1912 0 0 1.1912 -25.482 -58.886)" d="m71.896 230.65c6.1062 3.098 13.134 4.074 26.462 4.3076m26.273-4.3076c-6.1062 3.098-13.134 4.074-26.462 4.3076"/>
    <path transform="matrix(1.1912 0 0 1.1912 -25.469 -78.329)" d="m71.896 230.65c6.1062 3.098 13.134 4.074 26.462 4.3076m26.273-4.3076c-6.1062 3.098-13.134 4.074-26.462 4.3076"/>
   </g>
  </g>
  <ellipse cx="91.536" cy="167.61" rx="13.41" ry="6.1288" stroke-linejoin="round" stroke-width="3"/>
 </g>
</svg>
