<?xml version="1.0" encoding="UTF-8" standalone="no"?>
<svg
   xmlns:dc="http://purl.org/dc/elements/1.1/"
   xmlns:cc="http://creativecommons.org/ns#"
   xmlns:rdf="http://www.w3.org/1999/02/22-rdf-syntax-ns#"
   xmlns:svg="http://www.w3.org/2000/svg"
   xmlns="http://www.w3.org/2000/svg"
   xmlns:sodipodi="http://sodipodi.sourceforge.net/DTD/sodipodi-0.dtd"
   xmlns:inkscape="http://www.inkscape.org/namespaces/inkscape"
   sodipodi:docname="TuberiaT.svg"
   inkscape:version="1.0 (4035a4fb49, 2020-05-01)"
   width="20px"
   height="20px"
   viewBox="0 0 73.030609 71.209557"
   version="1.1"
   id="svg846">
  <defs
     id="defs840" />
  <sodipodi:namedview
     fit-margin-left="0.1"
     fit-margin-right="0.1"
     fit-margin-top="0.1"
     fit-margin-bottom="0.1"
     inkscape:window-maximized="1"
     inkscape:window-y="-9"
     inkscape:window-x="-9"
     inkscape:window-height="1001"
     inkscape:window-width="1920"
     showgrid="false"
     inkscape:document-rotation="0"
     inkscape:current-layer="layer1"
     inkscape:document-units="mm"
     inkscape:cy="133.75072"
     inkscape:cx="-240.65672"
     inkscape:zoom="0.98994949"
     inkscape:pageshadow="2"
     inkscape:pageopacity="0.0"
     borderopacity="1.0"
     bordercolor="#666666"
     pagecolor="#ffffff"
     id="base" />
  <metadata
     id="metadata843">
    <rdf:RDF>
      <cc:Work
         rdf:about="">
        <dc:format>image/svg+xml</dc:format>
        <dc:type
           rdf:resource="http://purl.org/dc/dcmitype/StillImage" />
        <dc:title></dc:title>
      </cc:Work>
    </rdf:RDF>
  </metadata>
  <g
     transform="translate(-114.58751,-129.74856)"
     id="layer1"
     inkscape:groupmode="layer"
     inkscape:label="Capa 1">
    <path
       sodipodi:nodetypes="cscscssscssscsscscssssscsscccsssscsscsccsssccssssssccsccccsscccssscccsscsssscsssccsscccccssscccsssssssssssscsscccccccccssssss"
       id="path1508"
       d="m 160.33072,200.2929 c -1.04227,-0.63548 -1.91347,-1.98811 -1.91482,-2.97295 -8e-4,-0.57384 -0.15075,-0.75454 -0.7286,-0.87794 -10.51344,-2.24498 -16.60816,-10.35911 -16.93239,-22.54272 -0.13228,-4.9704 -0.14908,-5.09325 -0.69663,-5.09422 -4.30823,-0.008 -4.17028,-6.23593 0.16652,-7.5184 0.76073,-0.22495 0.65145,-4.10339 -0.16502,-5.85678 -1.55533,-3.3401 -2.96695,-3.82175 -11.20088,-3.82175 h -6.34356 l -0.3062,1.02199 c -1.05286,3.51413 -5.67319,3.77783 -7.08276,0.40425 -0.70531,-1.68804 -0.5114,-16.90315 0.23194,-18.19973 1.78509,-3.11367 7.03449,-2.02013 7.0689,1.47257 0.004,0.39988 0.72582,0.45162 7.61113,0.54544 16.36247,0.22295 24.61542,7.06392 25.41247,21.06469 l 0.18596,3.2665 1.01728,0.34897 c 3.827,1.31282 3.3733,7.26573 -0.55426,7.27225 -0.93653,0.002 -0.90876,7.3968 0.0353,9.3937 0.7341,1.55282 2.27299,3.12401 2.48364,2.53577 1.01527,-2.83519 5.44987,-3.17707 6.82087,-0.52585 0.50183,0.97044 0.70218,0.96264 1.56341,-0.0609 1.90319,-2.26181 1.86296,-1.99143 1.86296,-12.52115 v -9.51378 l -0.79375,-0.16372 c -4.02559,-0.83033 -4.07472,-6.6585 -0.0616,-7.3073 l 0.99674,-0.16114 -0.0707,-6.49721 -0.0707,-6.49721 -0.89439,-0.23163 c -3.34536,-0.86638 -4.05036,-5.41462 -1.07758,-6.95191 1.31002,-0.67744 17.82047,-0.56597 18.9586,0.128 2.76214,1.68417 1.89296,6.28667 -1.28314,6.79454 l -1.01911,0.16297 v 6.58076 c 0,6.50771 0.006,6.58077 0.55532,6.58077 1.72642,0 3.41433,1.91547 3.41244,3.87248 -0.002,1.85166 -1.5704,3.53585 -3.29317,3.53585 h -0.67459 l -0.002,10.12032 c -0.002,11.51131 -0.15321,12.7056 -2.12316,16.78062 -2.76433,5.7183 -8.54588,10.30706 -14.5888,11.57901 -0.53377,0.11235 -0.75182,0.35903 -0.89176,1.00886 -0.6267,2.91009 -3.29243,4.26144 -5.61403,2.84595 z m 3.0351,-2.64726 c 0.24388,-0.4845 0.33296,-2.64347 0.33296,-8.06979 0,-8.15492 -0.0832,-8.66441 -1.4405,-8.82009 -1.42259,-0.16317 -1.46212,0.0762 -1.46212,8.85176 0,7.03358 0.052,8.05229 0.43014,8.43046 0.61234,0.61233 1.73766,0.40598 2.13952,-0.39234 z m -4.95091,-8.67108 v -5.2315 l -0.95113,-0.51221 c -3.13038,-1.68583 -4.34706,-4.59638 -4.34322,-10.38989 l 0.003,-4.0349 h -5.05892 -5.05892 l 0.13827,4.96094 c 0.21203,7.6072 1.66851,11.46083 5.84338,15.46069 2.31579,2.21871 7.14185,4.81446 9.22942,4.96414 0.10914,0.008 0.19844,-2.33994 0.19844,-5.21727 z m 9.79991,4.56653 c 5.00782,-1.70327 9.04187,-5.30695 11.25096,-10.05065 1.544,-3.31553 1.7033,-4.78677 1.7033,-15.73156 v -9.80074 h -4.87987 -4.87986 l -0.088,9.72344 c -0.1051,11.60934 -0.67751,13.59875 -4.47831,15.56422 l -0.75518,0.39052 v 5.28487 c 0,2.90668 0.0387,5.28487 0.0859,5.28487 0.0473,0 0.96574,-0.29923 2.04104,-0.66497 z m -11.60668,-27.55416 c 0.60039,-0.54334 0.6151,-1.09521 0.046,-1.7241 -0.63904,-0.70613 -16.29388,-0.74829 -17.06993,-0.046 -0.59127,0.53509 -0.60562,0.85803 -0.072,1.61991 0.56085,0.80072 16.22505,0.9383 17.09594,0.15016 z m -3.53709,-6.83816 c 0.32442,-8.57264 -4.89703,-16.13629 -13.11616,-18.9997 l -2.91113,-0.67105 -7.00541,-0.24626 -7.60678,-0.11262 v 5.0381 5.03809 l 7.07761,0.0819 c 6.77466,0.0784 7.13011,0.10805 8.30424,0.69221 3.46992,1.72638 5.02989,4.29899 5.20653,8.58628 l 0.11757,2.8534 4.92671,-0.0719 4.92672,-0.0719 z m 31.74928,-3.88938 c 0.44522,-0.44522 0.39518,-1.41909 -0.0983,-1.91255 -0.35993,-0.35994 -1.50767,-0.41578 -8.54604,-0.41578 -8.68764,0 -8.76527,0.0117 -8.76527,1.32292 0,0.37835 0.14288,0.83079 0.3175,1.00541 0.454,0.45401 16.63808,0.45401 17.09209,0 z m -65.29917,-2.59291 c 0.50565,-0.50565 0.52916,-0.88195 0.52916,-8.46667 0,-8.50965 -0.0786,-8.99583 -1.4552,-8.99583 -1.37631,0 -1.45521,0.48721 -1.45521,8.98552 0,7.81414 0.008,7.93489 0.57905,8.46667 0.72699,0.67729 1.13289,0.67961 1.8022,0.0103 z m 61.64792,-8.73125 v -6.61459 h -4.8948 -4.89479 v 6.61459 6.61458 h 4.89479 4.8948 z m 3.55297,-9.41161 c 0.49346,-0.49346 0.5435,-1.46733 0.0983,-1.91256 -0.45401,-0.454 -16.63809,-0.454 -17.09209,0 -0.4759,0.4759 -0.38635,1.73277 0.14552,2.04256 0.84053,0.48956 16.34839,0.3699 16.84829,-0.13 z"
       style="fill:#b3b3b3;fill-opacity:1;stroke-width:0.264583" />
    <path
       d=""
       id="path1506"
       style="fill:#000000;stroke-width:0.264583" />
    <path
       d=""
       id="path1504"
       style="fill:#000000;stroke-width:0.264583" />
    <path
       d=""
       id="path1502"
       style="fill:#000000;stroke-width:0.264583" />
  </g>
</svg>
